HIERARCHY
ROOT Hips
{
	OFFSET 0.000000 0.000000 0.000000
	CHANNELS 6 Xposition Yposition Zposition Zrotation Yrotation Xrotation 
	JOINT LHipJoint
	{
		OFFSET 0.000000 0.000000 0.000000
		CHANNELS 3 Zrotation Yrotation Xrotation
		JOINT LeftUpLeg
		{
			OFFSET 1.363060 -1.794630 0.839290
			CHANNELS 3 Zrotation Yrotation Xrotation
			JOINT LeftLeg
			{
				OFFSET 2.448110 -6.726130 0.000000
				CHANNELS 3 Zrotation Yrotation Xrotation
				JOINT LeftFoot
				{
					OFFSET 2.562200 -7.039590 0.000000
					CHANNELS 3 Zrotation Yrotation Xrotation
					JOINT LeftToeBase
					{
						OFFSET 0.157640 -0.433110 2.322550
						CHANNELS 3 Zrotation Yrotation Xrotation
						End Site
						{
							OFFSET 0.000000 0.000000 0.000000
						}
					}
				}
			}
		}
	}
	JOINT RHipJoint
	{
		OFFSET 0.000000 0.000000 0.000000
		CHANNELS 3 Zrotation Yrotation Xrotation
		JOINT RightUpLeg
		{
			OFFSET -1.305520 -1.794630 0.839290
			CHANNELS 3 Zrotation Yrotation Xrotation
			JOINT RightLeg
			{
				OFFSET -2.542530 -6.985550 0.000000
				CHANNELS 3 Zrotation Yrotation Xrotation
				JOINT RightFoot
				{
					OFFSET -2.568260 -7.056230 0.000000
					CHANNELS 3 Zrotation Yrotation Xrotation
					JOINT RightToeBase
					{
						OFFSET -0.164730 -0.452590 2.363150
						CHANNELS 3 Zrotation Yrotation Xrotation
						End Site
						{
							OFFSET 0.000000 0.000000 0.000000
						}
					}
				}
			}
		}
	}
	JOINT LowerBack
	{
		OFFSET 0.000000 0.000000 0.000000
		CHANNELS 3 Zrotation Yrotation Xrotation
		JOINT Spine
		{
			OFFSET 0.028270 2.035590 -0.193380
			CHANNELS 3 Zrotation Yrotation Xrotation
			JOINT Spine1
			{
				OFFSET 0.056720 2.048850 -0.042750
				CHANNELS 3 Zrotation Yrotation Xrotation
				JOINT Neck
				{
					OFFSET 0.000000 0.000000 0.000000
					CHANNELS 3 Zrotation Yrotation Xrotation
					JOINT Neck1
					{
						OFFSET -0.054170 1.746240 0.172020
						CHANNELS 3 Zrotation Yrotation Xrotation
						JOINT Head
						{
							OFFSET 0.104070 1.761360 -0.123970
							CHANNELS 3 Zrotation Yrotation Xrotation
							End Site
							{
								OFFSET 0.000000 0.000000 0.000000
							}
						}
					}
				}
				JOINT LeftShoulder
				{
					OFFSET 0.000000 0.000000 0.000000
					CHANNELS 3 Zrotation Yrotation Xrotation
					JOINT LeftArm
					{
						OFFSET 3.362410 1.200890 -0.311210
						CHANNELS 3 Zrotation Yrotation Xrotation
						JOINT LeftForeArm
						{
							OFFSET 4.983000 -0.000000 -0.000000
							CHANNELS 3 Zrotation Yrotation Xrotation
							JOINT LeftHand
							{
								OFFSET 3.483560 -0.000000 -0.000000
								CHANNELS 3 Zrotation Yrotation Xrotation
								JOINT LeftFingerBase
								{
									OFFSET 0.000000 0.000000 0.000000
									CHANNELS 3 Zrotation Yrotation Xrotation
									JOINT LeftHandIndex1
									{
										OFFSET 0.715260 -0.000000 -0.000000
										CHANNELS 3 Zrotation Yrotation Xrotation
										End Site
										{
											OFFSET 0.000000 0.000000 0.000000
										}
									}
								}
								JOINT LThumb
								{
									OFFSET 0.000000 0.000000 0.000000
									CHANNELS 3 Zrotation Yrotation Xrotation
									End Site
									{
										OFFSET 0.000000 0.000000 0.000000
									}
								}
							}
						}
					}
				}
				JOINT RightShoulder
				{
					OFFSET 0.000000 0.000000 0.000000
					CHANNELS 3 Zrotation Yrotation Xrotation
					JOINT RightArm
					{
						OFFSET -3.136600 1.374050 -0.404650
						CHANNELS 3 Zrotation Yrotation Xrotation
						JOINT RightForeArm
						{
							OFFSET -5.241900 -0.000000 -0.000000
							CHANNELS 3 Zrotation Yrotation Xrotation
							JOINT RightHand
							{
								OFFSET -3.444170 -0.000000 -0.000000
								CHANNELS 3 Zrotation Yrotation Xrotation
								JOINT RightFingerBase
								{
									OFFSET 0.000000 0.000000 0.000000
									CHANNELS 3 Zrotation Yrotation Xrotation
									JOINT RightHandIndex1
									{
										OFFSET -0.622530 -0.000000 -0.000000
										CHANNELS 3 Zrotation Yrotation Xrotation
										End Site
										{
											OFFSET 0.000000 0.000000 0.000000
										}
									}
								}
								JOINT RThumb
								{
									OFFSET 0.000000 0.000000 0.000000
									CHANNELS 3 Zrotation Yrotation Xrotation
									End Site
									{
										OFFSET 0.000000 0.000000 0.000000
									}
								}
							}
						}
					}
				}
			}
		}
	}
}
MOTION
Frames: 11
Frame Time: 0.033333
-0.680957 14.917733 56.423878 88.215749 4.650180 -36.895265 -70.392720 -37.975457 43.487598 19.704262 20.499546 -68.142036 -101.926054 72.243957 -38.700902 40.883826 18.016651 -2.657121 2.808546 -1.944153 34.544002 40.736764 5.185719 -122.282632 16.401118 -71.493083 -78.476862 127.937736 -35.447494 -97.542997 -45.735366 3.353226 -17.977866 6.984386 -8.282739 54.877585 -162.277363 73.949296 -88.050651 162.347721 79.807092 162.448049 123.760820 59.081527 117.144926 -60.085434 -37.609645 48.773797 -22.551043 -35.293648 23.562885 0.588919 -0.274690 0.278909 49.402538 67.338175 -3.880164 122.044036 60.596960 77.221248 13.185530 -13.541543 -114.970575 -16.321565 -29.874022 -156.718116 -123.249425 -45.940641 117.602513 -0.516979 -0.182611 0.322044 0.381502 0.330621 -0.497867 53.819165 45.436389 88.218138 44.322899 30.291020 159.531891 18.339661 15.838920 83.721504 32.216493 -46.843803 32.620657 -31.327922 51.483224 -41.639119 -0.594634 0.558556 -0.670821 -0.535773 -0.446658 -0.194797 
-0.679867 14.918078 56.421806 86.837065 5.238281 -36.020268 -66.577471 -38.212814 41.204920 17.152635 19.351859 -68.095135 -100.053625 72.237356 -34.104191 43.883909 19.020476 -4.741175 2.584069 -1.626587 35.670810 41.985314 6.804962 -121.934821 13.933028 -70.697866 -77.803325 129.560649 -34.478517 -97.390664 -47.570439 4.081466 -20.480240 6.898682 -8.661753 57.384971 -159.019043 74.040226 -86.860999 156.600803 79.447746 157.332603 121.394954 59.171990 116.966999 -63.593623 -41.027339 51.238984 -26.402513 -38.522342 23.524415 0.429491 -0.148535 0.309974 45.103131 68.752637 -5.480792 124.625585 63.115764 77.881508 14.200210 -12.046570 -113.972073 -18.727570 -23.120759 -143.723367 -123.115380 -43.636666 113.720813 -0.362760 -0.210494 0.255470 0.475540 0.438261 -0.483003 55.510750 44.311750 88.660541 44.033610 30.633859 159.786184 19.330933 18.553260 84.347373 36.860247 -48.247318 26.446115 -41.013812 56.392363 -53.418795 -0.449865 0.513397 -0.485047 -0.357370 -0.607951 -0.355104 
-0.678903 14.918362 56.419949 85.734525 6.053763 -35.524839 -62.842965 -36.804262 38.163118 16.164130 16.184430 -66.561239 -103.744833 72.118098 -36.714338 47.845116 19.926711 -6.992517 2.361638 -1.413890 36.440804 42.190629 7.125856 -121.666355 13.932066 -70.619366 -79.227215 130.477947 -33.968486 -97.415318 -46.545275 5.078710 -25.443550 6.959858 -8.981022 58.771632 -155.783730 73.624704 -84.184066 163.955538 79.699230 163.919675 119.707008 59.176089 115.365531 -65.128579 -38.803167 50.758895 -27.004766 -42.006483 23.684106 0.495066 -0.265078 0.255648 40.930091 69.235403 -7.235268 125.782609 65.514563 77.302260 15.162280 -10.951152 -111.937893 -17.260114 -22.265564 -135.302236 -121.995314 -41.047469 109.134885 -0.469571 -0.148175 0.284101 0.383681 0.275676 -0.451432 57.135157 42.980681 88.923587 43.911218 30.805790 160.658604 20.035861 20.789614 85.052072 41.270236 -48.540772 20.082546 -57.285800 55.619347 -70.404860 -0.587006 0.483597 -0.634260 -0.489004 -0.398891 -0.160127 
-0.678114 14.918581 56.418438 84.216013 6.288843 -34.891290 -58.259614 -36.798230 36.318591 13.126467 13.822372 -66.458779 -100.445143 71.645352 -32.599866 52.209507 20.159725 -6.876809 2.504403 -1.348593 36.344107 43.527102 8.718167 -120.746093 12.294336 -69.534947 -79.619677 132.381103 -33.277704 -97.670165 -47.537384 5.667808 -28.476609 6.701065 -8.966947 60.312389 -152.367707 74.035214 -82.882542 156.135899 79.517515 156.816327 116.955139 59.386640 114.790972 -67.336745 -42.179575 51.489797 -28.023798 -45.605015 24.781418 0.397238 -0.101242 0.217409 36.988320 70.326027 -8.579060 126.516456 68.201432 75.712230 15.434740 -9.373908 -110.973102 -18.111931 -18.435735 -125.189848 -122.908993 -36.569693 106.230912 -0.325803 -0.196143 0.197680 0.392846 0.367309 -0.422360 58.553853 42.221740 89.106922 43.579419 30.710258 161.138651 20.145311 22.924826 85.441107 42.826280 -49.259917 17.172524 -76.610985 53.181074 -90.189581 -0.386781 0.488287 -0.410703 -0.335988 -0.533003 -0.254157 
-0.677450 14.918740 56.417141 83.442967 6.850862 -34.406721 -54.488892 -35.597696 33.685231 11.391588 10.136394 -64.834021 -101.181761 70.825007 -34.655279 57.357092 19.835685 -6.841182 2.594266 -1.327969 35.212071 43.538221 9.249664 -120.016600 12.551191 -68.682655 -81.563906 133.470162 -32.970475 -98.272878 -48.108954 9.524614 -33.057160 6.538910 -8.902627 61.284989 -150.160636 73.539326 -81.198429 163.972355 79.777402 163.715939 114.056329 59.386487 111.649286 -65.758231 -41.599876 48.313041 -28.054948 -49.630060 21.315185 0.430228 -0.219917 0.200252 35.398402 70.759679 -8.244330 125.995561 71.000036 73.294958 16.314973 -8.498582 -109.700412 -17.840577 -19.153898 -117.749946 -121.460507 -35.235271 103.954546 -0.357750 -0.111751 0.213549 0.371992 0.188513 -0.412766 59.500641 41.189124 88.960352 43.390334 30.659957 162.576872 20.163007 24.562627 85.595624 43.999376 -47.492395 13.388995 -89.312255 48.113592 -98.067615 -0.553450 0.410010 -0.598344 -0.413734 -0.327852 -0.159176 
-0.676909 14.918806 56.416065 82.224903 6.928538 -33.794639 -49.848999 -35.367203 32.039362 8.166431 6.591121 -64.424923 -95.925788 69.932344 -31.314747 62.644881 18.063027 -5.278806 3.089730 -1.507965 33.253428 44.680109 10.400288 -118.814236 11.967788 -67.091421 -83.095345 135.502847 -32.901178 -99.494136 -51.547056 11.819658 -36.800008 6.084714 -8.439854 62.286740 -146.783986 73.865323 -79.756527 156.655082 79.616166 157.153393 111.554875 59.071684 110.674166 -66.068301 -42.724132 47.792272 -24.551186 -52.323096 18.223862 0.344981 -0.077696 0.166726 34.289594 71.161539 -7.674771 124.464498 73.732426 69.956338 16.798758 -7.536899 -109.711762 -22.154901 -19.278022 -108.617470 -125.000246 -30.411806 103.754995 -0.288638 -0.184656 0.149118 0.277785 0.341101 -0.406782 60.254543 40.693739 88.785626 43.519119 30.208025 163.200736 20.108773 26.052811 85.929962 43.672479 -46.992749 12.548330 -99.070147 36.297976 -107.185501 -0.323303 0.431268 -0.368393 -0.312749 -0.507385 -0.133399 
-0.676525 14.918753 56.415333 81.576522 7.315268 -33.557029 -46.849342 -34.538693 30.608463 5.760517 2.834205 -63.143984 -93.777280 68.712673 -33.179388 67.161015 17.435710 -4.885155 3.420541 -1.577595 30.498918 44.818542 11.089171 -117.626586 12.404854 -65.551906 -85.498923 136.702409 -32.942365 -100.506555 -55.467195 15.621882 -43.811833 5.634683 -7.942133 63.422047 -146.283528 73.511820 -80.077098 163.024669 79.671115 162.453889 109.020739 58.790358 107.701390 -63.570765 -42.943984 43.809624 -22.234860 -54.574685 10.211071 0.374327 -0.200782 0.168810 35.480760 71.494187 -6.114112 120.274556 76.605845 64.796642 17.883549 -6.742339 -109.067743 -23.411868 -19.062895 -101.805671 -125.045631 -29.860861 104.956544 -0.339813 -0.076907 0.167033 0.369880 0.082138 -0.335385 60.253977 40.061197 88.489762 43.703134 29.871067 164.418420 20.116957 27.116952 85.934590 44.641652 -44.690952 9.657494 -111.526004 27.453889 -111.215444 -0.479758 0.374132 -0.519824 -0.321032 -0.299505 -0.167371 
-0.676262 14.918608 56.414822 81.019331 7.221809 -32.843588 -43.382143 -34.346940 29.673679 3.262422 -0.303572 -62.447641 -90.184279 67.709475 -32.622082 72.790792 14.943186 -2.314718 4.132380 -1.795833 27.223163 46.258247 11.801742 -116.173593 12.649803 -63.584551 -87.443203 139.145320 -33.778749 -102.586838 -60.575514 16.867564 -50.610902 5.133257 -7.411616 64.386327 -144.768252 73.584048 -80.281347 156.011945 79.450516 156.387764 107.436745 58.582539 107.285058 -64.062502 -42.782420 44.539622 -15.478195 -58.334272 3.937559 0.340922 -0.057260 0.115677 35.929913 71.984959 -5.063034 112.413014 79.047443 56.408933 18.072405 -5.984245 -109.256044 -28.697316 -20.525513 -95.783799 -127.557885 -24.224897 106.571981 -0.263742 -0.175162 0.137661 0.252833 0.281265 -0.386326 60.159647 39.669977 88.117039 44.102542 28.984678 164.983725 20.162757 27.884826 85.935406 42.671156 -44.255068 10.961357 -119.128141 14.649022 -114.199337 -0.274761 0.420496 -0.312632 -0.331860 -0.423883 -0.065908 
-0.676017 14.918422 56.414150 80.829114 6.990603 -32.663984 -41.169338 -33.886162 29.114307 1.172789 -2.631089 -61.465204 -88.246763 66.418955 -34.212611 76.437855 14.526400 -0.583267 4.591593 -1.840563 23.780712 46.477231 12.313863 -114.691049 13.097052 -62.077506 -89.787865 140.491000 -35.429465 -104.043208 -66.034711 20.811629 -59.229282 4.645567 -6.788369 65.575997 -145.919644 73.126446 -82.266904 161.205380 79.605962 160.676628 105.861480 58.239232 105.332180 -61.387716 -43.928241 41.084915 -14.034563 -58.637661 -2.494567 0.301260 -0.160406 0.142667 38.584387 72.557435 -2.927216 99.210928 81.057668 42.852136 18.596476 -4.945855 -108.538678 -29.226165 -18.692135 -91.743746 -127.020579 -24.440447 109.846405 -0.324970 -0.069567 0.140290 0.368181 0.056559 -0.299771 59.471229 39.192478 87.800580 44.234798 28.326438 165.965790 20.473093 28.286554 85.188100 41.784919 -42.096347 10.416258 -131.409589 7.105368 -114.475248 -0.455855 0.361287 -0.451916 -0.263661 -0.302010 -0.147322 
-0.675713 14.918193 56.413013 80.762226 6.561745 -31.866381 -38.690096 -33.754532 28.611791 -0.704406 -4.832923 -60.536014 -85.828120 65.344832 -34.019881 80.583578 11.417390 2.777206 5.313446 -1.967684 19.963849 47.615051 12.909701 -113.446276 13.327583 -60.563606 -91.324083 142.873771 -37.423866 -106.001270 -72.146573 20.238840 -64.925974 4.121678 -6.156993 66.547431 -145.718093 73.030502 -83.243808 158.742692 79.289195 158.819477 104.321152 58.305855 104.320299 -58.927319 -43.091984 40.505180 -4.420908 -62.501629 -11.091528 0.346743 -0.050537 0.118244 42.081217 72.844582 0.020759 83.763515 81.877208 27.943963 18.394033 -3.913045 -108.690979 -35.268698 -20.170583 -87.198784 -129.508537 -19.215714 111.635679 -0.247575 -0.195692 0.127112 0.251878 0.276365 -0.405559 59.155117 38.889993 87.073391 44.490013 26.939720 166.299459 20.799188 28.297014 84.387240 37.661305 -42.534823 14.425355 -141.049359 -0.694633 -113.289436 -0.288366 0.402102 -0.346005 -0.331788 -0.415038 -0.023228 
-0.675426 14.917922 56.411720 80.876738 5.772568 -31.515939 -37.462532 -34.179698 28.645668 -2.641388 -5.930541 -59.770903 -83.314663 64.131433 -34.619480 82.660691 10.735496 4.551640 5.816310 -1.940002 16.218319 47.656107 13.568546 -112.129066 14.348129 -59.482398 -93.717608 143.812226 -39.608001 -106.864371 -79.116402 21.675693 -72.179984 3.639250 -5.507656 67.938702 -147.062655 72.832015 -85.502202 163.764317 79.172796 163.200629 103.179790 57.886497 102.892200 -55.569557 -44.884534 36.490139 -2.353456 -61.870476 -17.029273 0.314655 -0.143477 0.094288 45.525584 72.888025 2.330440 70.282240 81.932951 14.322426 18.020380 -2.081187 -107.761260 -35.295733 -17.069445 -84.814117 -130.632797 -18.306882 114.756454 -0.328515 -0.110898 0.134460 0.381006 0.024734 -0.299294 57.704778 38.732946 86.189376 44.310464 25.861983 166.838458 21.421822 27.596350 82.946591 35.407981 -41.088830 16.206317 -154.694603 -2.777631 -109.685651 -0.435793 0.351748 -0.433339 -0.280698 -0.349932 -0.169662 
